<?xml version="1.0" encoding="iso-8859-1"?>
<!DOCTYPE svg PUBLIC "-//W3C//DTD SVG 1.1//EN" "http://www.w3.org/Graphics/SVG/1.1/DTD/svg11.dtd">
<svg 
 version="1.1" xmlns="http://www.w3.org/2000/svg" xmlns:xlink="http://www.w3.org/1999/xlink" x="0px" y="0px" width="512px"
	 height="512px" viewBox="0 0 512 512" style="enable-background:new 0 0 512 512;" xml:space="preserve"
><g id="afcae5a789ccd549f9c6e2a2f80ad019"><g></g><path style="display: inline;" d="M38.195,35.17C21.127,42.794,9.057,56.039,4.177,72.488C1.734,79.281,0.5,86.478,0.5,93.888
		c0,29.312,18.75,56.501,45.615,66.19c7.725,3.485,15.814,6.571,24.388,9.843c32.033,12.219,68.334,26.063,100.496,67.57
		l15.361,19.833l-13.55,17.414c-32.247,41.437-68.577,55.2-100.634,67.344c-8.582,3.25-16.686,6.322-24.41,9.79
		C20.808,361.519,1.991,388.73,1.991,418.11c0,7.351,1.227,14.505,3.632,21.267c4.849,16.445,16.89,29.719,33.93,37.388
		c15.81,7.108,34.187,8.507,50.446,3.858c30.853-6.62,54.996-34.866,54.996-64.369c0-3.961-0.444-7.917-1.31-11.758
		c-5-22.118-11.748-28.211-16.677-32.668c-2.593-2.33-4.156-3.742-5.124-7.184c-0.088-0.311-0.133-0.595-0.133-0.875
		c0-5.19,14.759-13.021,31.865-22.088c18.944-10.057,44.874-23.82,74.332-45.016l177.229,125.537l0.248,0.164
		c34.574,21.184,69.489,22.888,98.304,4.817l5.541-3.473L282.319,256.916L511.5,89.271l-5.527-3.486
		c-28.779-18.137-63.694-16.503-98.316,4.6l-0.128,0.075L228.021,217.01l-1.168-0.857c-29.685-21.529-55.818-35.47-74.9-45.646
		c-17.071-9.106-31.816-16.965-31.816-22.16c0-0.28,0.036-0.568,0.125-0.879c0.985-3.436,2.548-4.844,5.141-7.174
		c4.942-4.441,11.704-10.519,16.753-32.625c0.887-3.88,1.34-7.871,1.34-11.872c0-29.458-24.078-57.7-54.85-64.374
		C72.398,26.735,54.018,28.094,38.195,35.17z M78.18,373.724l0.266,0.004c12.664,0,20.762,6.35,25.321,11.677
		c6.118,7.148,9.63,16.965,9.63,26.941c0,11.27-4.396,21.854-12.37,29.818c-9.181,9.155-24.17,13.684-38.199,11.531
		c-11.687-1.79-20.815-7.908-25.68-17.219l-0.179-0.301c-3.463-5.502-5.212-11.566-5.212-18.014
		c0-11.255,5.567-23.219,14.904-32.011C55.75,377.592,67.239,373.063,78.18,373.724z M99.58,69.904
		c7.938,7.956,12.308,18.523,12.308,29.756c0,11.113-4.206,21.688-11.545,29.006c-6.326,6.318-14.451,9.648-23.495,9.625
		l-0.267,0.009c-10.922,0.63-22.385-3.916-31.442-12.463c-9.324-8.794-14.878-20.756-14.878-32.002
		c0-6.481,1.762-12.565,5.252-18.083l0.178-0.307c4.889-9.296,14.03-15.388,25.725-17.159C75.444,56.167,90.425,60.727,99.58,69.904
		z"></path></g></svg>